<?xml version="1.0" encoding="UTF-8"?> <svg xmlns="http://www.w3.org/2000/svg" id="Layer_1" version="1.1" viewBox="0 0 492 492"><!-- Generator: Adobe Illustrator 29.1.0, SVG Export Plug-In . SVG Version: 2.1.0 Build 142) --><defs><style> .st0 { fill: #1d7a45; } .st1 { fill: #b9a77a; } .st2 { fill: #4a535c; } .st3 { fill: #dddee6; } .st4 { fill: #edebe0; } </style></defs><path class="st4" d="M134.2,442c2.7,0,4.9-2.2,4.9-4.9s-2.2-4.9-4.9-4.9l4.7-186.7c0-2.7-88.5-4.9-91.2-4.9s-4.9,2.2-4.9,4.9v191.6c0,2.7,2.2,4.9,4.9,4.9h86.6Z"></path><path class="st4" d="M449.8,245.5c0-2.7-2.2-4.9-4.9-4.9s-86.2,2.2-86.2,4.9l-.9,186.7c-2.7,0-4.9,2.2-4.9,4.9s2.2,4.9,4.9,4.9h87.1c2.7,0,4.9-2.2,4.9-4.9v-191.6Z"></path><path class="st3" d="M134.2,442c2.7,0,4.9-2.2,4.9-4.9s-2.2-4.9-4.9-4.9l4.7-186.7c0-.8-7.9-1.6-19.1-2.2v193.3c0,.2,0,.4,0,.5,0,1.7.3,3.4.9,4.9h13.6Z"></path><path class="st3" d="M372.8,243.5c-8.4.6-14.1,1.3-14.1,2l-.9,186.7c-2.7,0-4.9,2.2-4.9,4.9s2.2,4.9,4.9,4.9h14.2c.5-1.5.8-3.2.8-4.9v-193.6h0Z"></path><path class="st0" d="M358.3,219.6c-2.7,0-4.9,2.2-4.9,4.9v21c0,2.7,2.2,4.9,4.9,4.9h96.2c2.1,0,4.1-.9,5.5-2.3s2.3-3.3,2.3-5.5v-15.3c0-2.2-.9-4.1-2.3-5.5s-3.4-2.3-5.5-2.3h-96.2Z"></path><path class="st0" d="M136.9,241.4c1.4-6.2,2.3-15.1,2.3-16.9,0-2.7-2.2-4.9-4.9-4.9H38c-2.1,0-4.1.9-5.5,2.3s-2.3,3.3-2.3,5.5v15.3c0,2.2.9,4.1,2.3,5.5s3.4,2.3,5.5,2.3h96.2c2.7,0,4.9-2.2,4.9-4.9,0-1.7-.9-3.3-2.3-4.1Z"></path><path class="st2" d="M136.9,241.4c1.4-6.2,2.3-15.1,2.3-16.9,0-2.7-2.2-4.9-4.9-4.9h-14.5v30.9h14.5c2.7,0,4.9-2.2,4.9-4.9,0-1.7-.9-3.3-2.3-4.1Z"></path><path class="st4" d="M134.1,442h223.7c0,0,.2,0,.2,0,0,0,.2,0,.2,0,2.7,0,4.9-2.2,4.9-4.9V79.4c0-2.7-2.2-4.9-4.9-4.9h-224.1c-2.7,0-4.9,2.2-4.9,4.9v357.4c0,.1,0,.2,0,.4,0,2.7,2.1,4.9,4.8,4.9Z"></path><path class="st3" d="M363.2,91.8v-12.4c0-2.7-2.2-4.9-4.9-4.9h-224.1c-2.7,0-4.9,2.2-4.9,4.9v12.4h233.9Z"></path><path class="st0" d="M203.6,442h85.4v-113.5c0-2.8-2.2-5-5-5h-75.4c-2.8,0-5,2.2-5,5v113.5h0Z"></path><rect class="st0" x="241.2" y="323.5" width="10.1" height="118.5"></rect><path class="st0" d="M305.6,84.3h68.9c2.5,0,4.8-1,6.4-2.6,1.6-1.7,2.7-3.9,2.7-6.4v-14.7c0-2.5-1-4.8-2.7-6.4-1.6-1.6-3.9-2.7-6.4-2.7H118.1c-2.5,0-4.8,1-6.4,2.7s-2.7,3.9-2.7,6.4v14.7c0,2.5,1,4.8,2.6,6.4,1.6,1.6,3.9,2.7,6.4,2.7h187.5Z"></path><path class="st1" d="M103.1,390.8h-34.1c-2.8,0-5-2.2-5-5v-34.1c0-2.8,2.2-5,5-5h34.1c2.8,0,5,2.2,5,5v34.1c0,2.8-2.2,5-5,5h0ZM103.1,319.5h-34.1c-2.8,0-5-2.2-5-5v-34.1c0-2.8,2.2-5,5-5h34.1c2.8,0,5,2.2,5,5v34.1c0,2.8-2.2,5-5,5Z"></path><path class="st1" d="M423.5,319.5h-34.1c-2.8,0-5-2.2-5-5v-34.1c0-2.8,2.2-5,5-5h34.1c2.8,0,5,2.2,5,5v34.1c0,2.8-2.2,5-5,5h0ZM423.5,390.8h-34.1c-2.8,0-5-2.2-5-5v-34.1c0-2.8,2.2-5,5-5h34.1c2.8,0,5,2.2,5,5v34.1c0,2.8-2.2,5-5,5Z"></path><path class="st1" d="M197.1,143.5h-34.1c-2.8,0-5-2.2-5-5v-34.1c0-2.8,2.2-5,5-5h34.1c2.8,0,5,2.2,5,5v34.1c0,2.8-2.2,5-5,5h0ZM329.5,309.9h-34.1c-2.8,0-5-2.2-5-5v-34.1c0-2.8,2.2-5,5-5h34.1c2.8,0,5,2.2,5,5v34.1c0,2.8-2.2,5-5,5h0ZM263.3,309.9h-34.1c-2.8,0-5-2.2-5-5v-34.1c0-2.8,2.2-5,5-5h34.1c2.8,0,5,2.2,5,5v34.1c0,2.8-2.2,5-5,5h0ZM197.1,309.9h-34.1c-2.8,0-5-2.2-5-5v-34.1c0-2.8,2.2-5,5-5h34.1c2.8,0,5,2.2,5,5v34.1c0,2.8-2.2,5-5,5h0ZM329.5,254.4h-34.1c-2.8,0-5-2.2-5-5v-34.1c0-2.8,2.2-5,5-5h34.1c2.8,0,5,2.2,5,5v34.1c0,2.8-2.2,5-5,5h0ZM263.3,254.4h-34.1c-2.8,0-5-2.2-5-5v-34.1c0-2.8,2.2-5,5-5h34.1c2.8,0,5,2.2,5,5v34.1c0,2.8-2.2,5-5,5h0ZM197.1,254.4h-34.1c-2.8,0-5-2.2-5-5v-34.1c0-2.8,2.2-5,5-5h34.1c2.8,0,5,2.2,5,5v34.1c0,2.8-2.2,5-5,5h0ZM329.5,198.9h-34.1c-2.8,0-5-2.2-5-5v-34.1c0-2.8,2.2-5,5-5h34.1c2.8,0,5,2.2,5,5v34.1c0,2.8-2.2,5-5,5h0ZM263.3,198.9h-34.1c-2.8,0-5-2.2-5-5v-34.1c0-2.8,2.2-5,5-5h34.1c2.8,0,5,2.2,5,5v34.1c0,2.8-2.2,5-5,5h0ZM197.1,198.9h-34.1c-2.8,0-5-2.2-5-5v-34.1c0-2.8,2.2-5,5-5h34.1c2.8,0,5,2.2,5,5v34.1c0,2.8-2.2,5-5,5h0ZM329.5,143.5h-34.1c-2.8,0-5-2.2-5-5v-34.1c0-2.8,2.2-5,5-5h34.1c2.8,0,5,2.2,5,5v34.1c0,2.8-2.2,5-5,5h0ZM263.3,143.5h-34.1c-2.8,0-5-2.2-5-5v-34.1c0-2.8,2.2-5,5-5h34.1c2.8,0,5,2.2,5,5v34.1c0,2.8-2.2,5-5,5Z"></path></svg> 